<svg width="50" height="50" viewBox="0 0 50 50" fill="none" xmlns="http://www.w3.org/2000/svg">
<path d="M17.4998 35.4167L24.9998 27.9167L32.4998 35.4167L35.4165 32.5L27.9165 25L35.4165 17.5L32.4998 14.5833L24.9998 22.0833L17.4998 14.5833L14.5832 17.5L22.0832 25L14.5832 32.5L17.4998 35.4167ZM24.9998 45.8333C22.1179 45.8333 19.4096 45.2861 16.8748 44.1917C14.3401 43.0972 12.1353 41.6132 10.2603 39.7396C8.38526 37.866 6.90123 35.6611 5.80817 33.125C4.71512 30.5889 4.1679 27.8806 4.16651 25C4.16512 22.1194 4.71234 19.4111 5.80817 16.875C6.90401 14.3389 8.38803 12.134 10.2603 10.2604C12.1325 8.3868 14.3373 6.90278 16.8748 5.80833C19.4123 4.71389 22.1207 4.16666 24.9998 4.16666C27.879 4.16666 30.5873 4.71389 33.1248 5.80833C35.6623 6.90278 37.8672 8.3868 39.7394 10.2604C41.6116 12.134 43.0964 14.3389 44.1936 16.875C45.2908 19.4111 45.8373 22.1194 45.8332 25C45.829 27.8806 45.2818 30.5889 44.1915 33.125C43.1012 35.6611 41.6172 37.866 39.7394 39.7396C37.8616 41.6132 35.6568 43.0979 33.1248 44.1937C30.5929 45.2896 27.8846 45.8361 24.9998 45.8333Z" fill="white"/>
</svg>
