<svg width="21" height="21" viewBox="0 0 21 21" fill="none" xmlns="http://www.w3.org/2000/svg">
<path d="M16.625 16.625H4.375V7H16.625M14 0.875V2.625H7V0.875H5.25V2.625H4.375C3.40375 2.625 2.625 3.40375 2.625 4.375V16.625C2.625 17.0891 2.80937 17.5342 3.13756 17.8624C3.46575 18.1906 3.91087 18.375 4.375 18.375H16.625C17.0891 18.375 17.5342 18.1906 17.8624 17.8624C18.1906 17.5342 18.375 17.0891 18.375 16.625V4.375C18.375 3.91087 18.1906 3.46575 17.8624 3.13756C17.5342 2.80937 17.0891 2.625 16.625 2.625H15.75V0.875M14.875 10.5H10.5V14.875H14.875V10.5Z" fill="#111827"/>
</svg>
