<?xml version="1.0" encoding="UTF-8"?>
<svg id="_레이어_1" data-name="레이어 1" xmlns="http://www.w3.org/2000/svg" width="365.17" height="45.32" viewBox="0 0 365.17 45.32">
  <g>
    <g>
      <path d="M132.4,11.14h-16.44c-3.09,0-4.26,1.86-4.26,3.75v13.57c0,2.8.05,5.59,5.01,5.59h14.94c4.96,0,5.01-2.79,5.01-5.59v-13.57c0-1.9-1.17-3.75-4.26-3.75ZM128.41,29.45c-.1.47-.4.79-1.13.79h-6.21c-.74,0-1.03-.32-1.14-.79v-13.5c.01-.47.32-.92,1.21-.92h6.06c.89,0,1.2.46,1.21.92v13.5Z" style="fill: #004898;"/>
      <path d="M188.04,11.14h-16.44c-3.09,0-4.26,1.7-4.26,3.75v13.57c0,2.8.05,5.59,5.01,5.59h14.94c4.96,0,5.01-2.79,5.01-5.59v-13.57c0-1.9-1.17-3.75-4.26-3.75ZM184.05,29.45c-.1.47-.4.79-1.13.79h-6.21c-.74,0-1.03-.32-1.14-.79v-13.5c.01-.47.32-.92,1.21-.92h6.07c.89,0,1.2.46,1.2.92v13.5Z" style="fill: #004898;"/>
      <path d="M108.89,13.66v-2.52h-18.89c-3.09,0-4.26,1.86-4.26,3.75v13.01c0,2.8.05,6.16,5.01,6.16h18.12v-3.83h-14.11c-.53,0-.78-.15-.78-.66v-4.34c0-.42.12-1,.91-1h0s13.29,0,13.29,0v-3.75h-14.2v-4.85c0-.39.21-.62.65-.62h12.49s1.77.1,1.77-1.36Z" style="fill: #004898;"/>
      <path d="M70.19,18.35c-1.21-.63-1.94-1.03-2.27-1.32-.26-.23-.33-.44-.39-.75-.02-.13,0-.48.14-.71.21-.34.57-.51,1.39-.51h11.51c2.04,0,2.02-1.45,2.02-1.45v-2.48h-17.85c-2.93,0-5.48,1.19-5.48,4.09v2.38c0,2.72,2.11,3.54,4.39,4.8,0,0,2.49,1.27,5.14,2.63,2.84,1.45,5.86,3,6.14,3.28.23.24.33.49.33.8s-.12.53-.35.71c-.22.18-.41.24-.79.29-.29.04-.61.05-1.06.05h-13.95v1.71c0,2.28,2.63,2.17,2.63,2.17h16.53c2.26,0,5.29-.6,5.29-3.71v-1.77c0-2.4.29-3.23-4.66-5.82l-8.73-4.41Z" style="fill: #004898;"/>
      <path d="M165.7,11.13h-4.87c-.71,0-.92.23-1.18.56l-6.48,8.9-6.39-8.85c-.61-.7-1.55-.6-2.22-.6h-6.15c-.62,0-.87.55-.54.98l9.99,13.88c.39.58.37,1.18.37,1.18v5.76s-.04,1.13,1.23,1.13h7.01v-8.02s.01-.74.45-1.35l9.28-12.75c.22-.33.4-.81-.51-.81Z" style="fill: #004898;"/>
      <path d="M204.82,12.9l7.19,12.01v-10.52c0-2.21.11-3.24,2.59-3.24h5.67v22.92h-5.79c-2.01,0-2.99-1.78-2.99-1.78l-7.73-12.79v14.57h-7.02c-1.23,0-1.22-.99-1.22-.99V14.24c0-2.21.4-3.09,2.74-3.09h3.31s2.08-.16,3.25,1.74Z" style="fill: #004898;"/>
    </g>
    <path d="M258.41,13.67v-2.52s-18.9,0-18.9,0c-3.09,0-4.26,1.86-4.26,3.76v13.01c0,2.8.05,6.16,5.01,6.16h18.12v-3.83h-14.11c-.54,0-.79-.15-.78-.66v-4.34c0-.42.12-.99.91-.99h0s13.3,0,13.3,0v-3.75h-14.21v-4.85c0-.39.21-.61.65-.61h12.49s1.68.08,1.77-1.37Z" style="fill: #004898;"/>
    <path d="M296.98,11.14c-2.67,0-2.74,1.02-2.74,3.24v5.55h-9.71v-8.79h-5.5c-2.67,0-2.74,1.02-2.74,3.24v18.7s.09.99,1.22.99h7.02v-9.65c.04-.31.18-.63.59-.73h8.54c.37.09.53.35.58.63v8.76s.09.99,1.22.99h7.02V11.14h-5.5Z" style="fill: #004898;"/>
    <path d="M335.12,11.16s-1.79-.11-2.36,1.46l-3.59,13.11-4.14-14.58h-3.49s-1.3-.1-1.76,1.31l-3.79,13.27-3.59-13.11c-.58-1.57-2.36-1.46-2.36-1.46h-6.19l6.77,22.91h7.61l4.35-14.87,4.37,14.87h7.61l6.77-22.91h-6.19Z" style="fill: #004898;"/>
    <path d="M272.89,20.38h-9.98s-1.77-.07-1.77,1.36v2.53s9.98,0,9.98,0c0,0,1.77.07,1.77-1.36v-2.52Z" style="fill: #004898;"/>
    <path d="M358.29,11.16h-10.39c-2.47.06-3.12,2.17-3.12,2.17l-5.64,19.36s-.54,1.38.91,1.38h6.64l1.6-5.56h7.13l1.2,4.1c.51,1.54,2.28,1.46,2.28,1.46h6.27l-6.87-22.91ZM349.37,24.76l2.46-8.53,2.49,8.53h-4.95Z" style="fill: #004898;"/>
  </g>
  <g>
    <g>
      <path d="M47.98,24.71l-12.43-7.81-9.17,5.77,9.17,5.77-9.17,5.76h0l-9.17-5.76h0l-4.58-2.89-4.59,2.89,4.59,2.88-4.59,2.88,17.17,10.79c.34.21.74.34,1.18.34s.83-.12,1.17-.33l20.45-12.85c1.25-.76,2.09-2.13,2.09-3.71s-.85-2.96-2.11-3.72Z" style="fill: #004898;"/>
      <path d="M8.03,28.43l-4.59-2.89-2.84,1.79c-.36.23-.6.63-.6,1.1s.24.87.61,1.1l2.84,1.78,4.59-2.88Z" style="fill: #004898;"/>
    </g>
    <path d="M43.49,11.13c0-.5-.26-.94-.65-1.18L27.55.34c-.34-.22-.74-.34-1.17-.34s-.83.12-1.17.34L4.76,13.19c-1.26.76-2.09,2.14-2.09,3.71s.85,2.96,2.11,3.71l12.43,7.82,9.17-5.77-9.17-5.76,9.17-5.77,9.17,5.77,7.3-4.59c.38-.25.63-.69.63-1.18Z" style="fill: #f8b500;"/>
  </g>
</svg>